<?xml version="1.0" encoding="utf-8"?>
<!-- Generator: Adobe Illustrator 14.0.0, SVG Export Plug-In . SVG Version: 6.00 Build 43363)  -->
<!DOCTYPE svg PUBLIC "-//W3C//DTD SVG 1.1//EN" "http://www.w3.org/Graphics/SVG/1.1/DTD/svg11.dtd">
<svg version="1.1" id="Layer_1" xmlns="http://www.w3.org/2000/svg" xmlns:xlink="http://www.w3.org/1999/xlink" x="0px" y="0px"
	 width="190px" height="64px" viewBox="0 0 190 64" style="enable-background:new 0 0 190 64;" xml:space="preserve">
<g>
	<path d="M2.617,6.548h13.417v39.47h19.189V57.25H2.617V6.548z" fill="#666"/>
	<path d="M37.873,31.665c0-16.692,9.516-26.053,23.557-26.053c14.04,0,23.557,9.438,23.557,26.053
		c0,16.692-9.517,26.521-23.557,26.521C47.389,58.186,37.873,48.357,37.873,31.665z M71.258,31.665
		c0-9.204-3.744-14.509-9.828-14.509c-6.084,0-9.829,5.305-9.829,14.509s3.744,14.977,9.829,14.977
		C67.514,46.642,71.258,40.869,71.258,31.665z" fill="#666"/>
	<path d="M116.652,5.612c7.177,0,12.637,3.12,16.225,6.708l-7.332,8.269c-2.496-2.185-4.68-3.433-8.736-3.433
		c-6.864,0-12.012,5.461-12.012,14.665c0,9.517,4.212,14.82,13.26,14.82c1.404,0,2.965-0.312,3.9-0.937v-7.02h-7.488V27.765h19.345
		v24.181c-3.744,3.433-10.296,6.24-17.473,6.24c-13.885,0-25.272-8.58-25.272-25.896C91.069,15.284,102.769,5.612,116.652,5.612z" fill="#666"/>
	<path d="M140.676,31.665c0-16.692,9.516-26.053,23.557-26.053c14.04,0,23.557,9.438,23.557,26.053
		c0,16.692-9.517,26.521-23.557,26.521C150.191,58.186,140.676,48.357,140.676,31.665z M174.061,31.665
		c0-9.204-3.744-14.509-9.828-14.509s-9.828,5.305-9.828,14.509s3.744,14.977,9.828,14.977S174.061,40.869,174.061,31.665z" fill="#666"/>
</g>
</svg>
